# xmcd
#
# Track frame offsets: 
#        150
#        15425
#        29305
#        44167
#        58581
#        72295
#        86051
#        99243
#        113844
#        129005
#        142791
#        155810
#        170884
#        184430
#        197641
#        211461
#        226679
#        241146
#        256191
#        271050
#
# Disc length: 3785 seconds
#
# Revision: 0
# Processed by: cddbd v1.5.2PL0 Copyright (c) Steve Scherf et al.
# Submitted via: ExactAudioCopy v0.95b4
#
DISCID=100ec714
DTITLE=Basin Street Blues - Louis Armstrong
DYEAR=1900
DGENRE=Blues
TTITLE0=I'm Confessin' That I Love You
TTITLE1=I'll Get Mine Bye And Bye
TTITLE2=Hep Cats' Ball
TTITLE3=When It's Sleepy Time Down South
TTITLE4=Harlem Stomp
TTITLE5=Down In Honky Tonk Town
TTITLE6=Baby Don't You Cry
TTITLE7=I Cover The Waterfront
TTITLE8=Shanty Boat On The Mississippi
TTITLE9=Poor Old Joe
TTITLE10=You're Just A No-Account
TTITLE11=Now Do You Call That A Buddy
TTITLE12=You Won't Be Satisfied
TTITLE13=Whatta Ya Gonna Do
TTITLE14=(Get Some) Cash For Your Trash
TTITLE15=On The Sunny Side Of The Street
TTITLE16=Can Anybody Explain
TTITLE17=Basin Street Blues
TTITLE18=You Rascal You
TTITLE19=2:19 Blues
EXTD=
EXTT0=
EXTT1=
EXTT2=
EXTT3=
EXTT4=
EXTT5=
EXTT6=
EXTT7=
EXTT8=
EXTT9=
EXTT10=
EXTT11=
EXTT12=
EXTT13=
EXTT14=
EXTT15=
EXTT16=
EXTT17=
EXTT18=
EXTT19=
PLAYORDER=
